<svg xmlns="http://www.w3.org/2000/svg" viewBox="0 0 24 24" fill="white">
  <path d="M12 0C5.37 0 0 5.37 0 12c0 5.31 3.435 9.795 8.205 11.385.6.105.825-.255.825-.57 0-.285-.015-1.23-.015-2.235-3.015.555-3.795-.735-4.035-1.41-.135-.345-.72-1.41-1.23-1.695-.42-.225-1.02-.78-.015-.795 1.005-.015 1.725.93 1.95 1.305 1.14 1.92 2.955 1.38 3.675 1.05.12-.825.45-1.38.81-1.695-2.835-.315-5.805-1.41-5.805-6.27 0-1.38.495-2.52 1.305-3.405-.135-.315-.57-1.605.135-3.345 0 0 1.065-.33 3.495 1.305 1.005-.285 2.1-.42 3.195-.42 1.08 0 2.175.135 3.195.42 2.43-1.65 3.495-1.305 3.495-1.305.705 1.74.27 3.03.135 3.345.81.885 1.305 2.01 1.305 3.405 0 4.875-2.985 5.955-5.82 6.27.465.405.87 1.17.87 2.37 0 1.71-.015 3.09-.015 3.51 0 .315.225.69.825.57C20.565 21.795 24 17.31 24 12c0-6.63-5.37-12-12-12z"/>
</svg>